PathFileType	4	(X/Y/Z)	 s09c0301.trc
DataRate	CameraRate	NumFrames	NumMarkers	Units	OrigDataRate	OrigDataStartFrame	OrigNumFrames
200	200	4	50	mm	200	1251	2000
Frame#	Time	racr			lacr			c7			jug			rlel			rdr			llel			ldr			s2			lic			ric			lasi			rasi			rpsi			lpsi			rgt			lgt			rth1			rth2			rth3			rth4			rlfc			rmfc			rsh1			rsh2			rsh3			rsh4			rlmal			rmmal			rcal			rtoe			rmt5			lth1			lth2			lth4			lth3			llfc			lmfc			llmal			lmmal			lcal			lmt5			lsh1			lsh2			lsh3			lsh4			ltoe			SBIKE			LBIKE			RBIKE			
		X1	Y1	Z1	X2	Y2	Z2	X3	Y3	Z3	X4	Y4	Z4	X5	Y5	Z5	X6	Y6	Z6	X7	Y7	Z7	X8	Y8	Z8	X9	Y9	Z9	X10	Y10	Z10	X11	Y11	Z11	X12	Y12	Z12	X13	Y13	Z13	X14	Y14	Z14	X15	Y15	Z15	X16	Y16	Z16	X17	Y17	Z17	X18	Y18	Z18	X19	Y19	Z19	X20	Y20	Z20	X21	Y21	Z21	X22	Y22	Z22	X23	Y23	Z23	X24	Y24	Z24	X25	Y25	Z25	X26	Y26	Z26	X27	Y27	Z27	X28	Y28	Z28	X29	Y29	Z29	X30	Y30	Z30	X31	Y31	Z31	X32	Y32	Z32	X33	Y33	Z33	X34	Y34	Z34	X35	Y35	Z35	X36	Y36	Z36	X37	Y37	Z37	X38	Y38	Z38	X39	Y39	Z39	X40	Y40	Z40	X41	Y41	Z41	X42	Y42	Z42	X43	Y43	Z43	X44	Y44	Z44	X45	Y45	Z45	X46	Y46	Z46	X47	Y47	Z47	X48	Y48	Z48	X49	Y49	Z49	X50	Y50	Z50	
1251	6.2550	704.386524	1357.019616	-25.304539	711.086557	1343.648869	-371.375300	699.015881	1405.378346	-189.416336	699.847209	1263.787303	-196.354701	628.412494	1100.020261	10.802623	720.400830	869.368985	-50.254114	578.812397	1099.716222	-456.178053	716.520282	888.850323	-429.359065	227.387684	1182.071098	-198.655671	368.452353	1173.300314	-343.421046	370.952066	1139.161714	-54.455312	392.652420	1108.986627	-320.613799	402.000139	1081.598149	-82.776673	262.958644	1199.659944	-135.419844	258.327571	1221.945615	-242.440672	314.108195	993.787159	-32.810106	317.936631	1063.913718	-403.667181	368.077748	867.810552	-50.504824	418.056035	797.436145	-66.072894	418.978985	709.572109	-82.701676	445.929633	808.892764	-87.505625	437.610114	619.931446	-118.140257	406.340536	601.649275	-207.774817	390.970420	530.572989	-77.792630	390.078976	441.377619	-91.420758	346.691385	365.402581	-85.675541	410.537634	438.420538	-125.981851	310.646076	268.340071	-83.272385	312.676067	277.445825	-158.350001	229.583507	262.262295	-115.280084	470.591981	150.714760	-130.530733	390.814995	166.985234	-63.040467	403.032685	955.504805	-415.064396	474.838534	909.827803	-412.324893	500.603595	930.621808	-393.657163	516.774918	830.338816	-420.313112	545.071891	736.098142	-408.499437	551.913899	711.119641	-311.965001	207.878165	590.330495	-410.952477	230.183030	586.261221	-339.250165	129.802378	613.749120	-371.335508	226.741102	469.273347	-430.276498	454.264936	696.836334	-428.972999	385.188528	645.331918	-417.715288	297.056357	634.408032	-415.036200	398.205581	621.221802	-389.157710	305.104497	422.133669	-359.034634	-64.600643	853.444976	-238.056372	20.672602	85.056648	-441.923686	21.132588	84.027529	-43.695531	
1252	6.2600	706.483957	1357.433274	-28.891549	707.624469	1344.919399	-375.811151	698.652843	1405.427575	-192.741077	699.323092	1263.993694	-199.691916	630.167569	1100.477634	9.872458	720.462993	869.226345	-50.502225	576.437656	1098.852983	-456.735481	715.438907	889.206050	-428.654580	226.843116	1181.933576	-195.172563	366.403463	1174.913545	-342.826439	372.523798	1138.417107	-54.137739	390.932607	1109.890712	-320.203014	403.148116	1080.934198	-82.563564	265.173662	1198.560849	-133.761920	259.444064	1219.980456	-241.122016	315.031348	993.547773	-31.567307	315.570281	1065.653196	-401.501774	365.691684	866.913217	-49.302482	413.934795	795.260126	-64.693879	412.699702	707.577908	-80.776057	441.901743	805.932586	-86.407325	428.991371	617.374643	-116.322353	395.343055	599.278641	-207.319891	382.571205	528.157992	-76.501679	382.591674	438.952794	-89.909137	339.764009	362.506021	-84.515512	403.005343	436.189914	-124.591249	304.548650	265.870390	-82.643719	306.565715	274.428172	-157.713674	223.822448	261.464872	-115.089418	461.257365	142.938546	-130.494402	382.051449	161.543707	-62.887648	403.919168	959.748318	-413.079402	476.815290	915.834726	-410.606515	502.091007	937.017122	-391.733000	520.756011	837.470555	-419.467354	551.807435	742.940872	-407.405779	558.373196	718.954467	-310.157765	215.355785	594.841305	-410.816442	237.295268	592.213200	-338.510751	136.276615	617.223991	-371.463233	236.082860	474.406838	-430.440399	461.391621	702.969997	-427.939435	392.477736	651.212334	-416.973667	304.332453	639.964281	-414.634074	405.486107	627.250133	-388.361475	315.252615	429.074611	-359.635735	-64.646588	853.434829	-238.080454	20.666746	85.055899	-441.919573	21.137482	84.019782	-43.677543	
1253	6.2650	708.476468	1357.684668	-32.728827	704.117041	1346.070749	-380.254712	698.295502	1405.712889	-196.121554	698.874828	1264.297197	-203.329539	631.965560	1100.891120	8.652030	720.701019	868.938316	-50.776994	574.027606	1098.004558	-457.278830	715.070313	889.526993	-428.615863	226.257370	1182.083570	-191.223829	363.166972	1175.413950	-340.815531	374.651669	1137.687026	-53.289419	389.324874	1110.681415	-320.112077	404.331801	1080.315189	-82.504359	265.858325	1198.317568	-130.666403	258.745399	1220.264360	-238.097012	315.958189	993.363111	-30.295976	312.719097	1067.315808	-399.737239	363.415876	866.319622	-48.226060	409.956628	793.377317	-63.214321	406.521710	705.623859	-78.584686	438.000325	803.287274	-85.215711	420.532821	615.356969	-114.349417	386.091564	597.179019	-205.864667	373.889887	525.975354	-75.412340	374.994209	436.698352	-88.436030	332.643696	360.173981	-83.255791	395.601332	434.241022	-122.905674	298.281101	263.801213	-81.748186	300.173128	271.736177	-156.926669	217.748247	261.174093	-114.824925	451.523921	135.841111	-130.384206	372.982151	156.626574	-62.797658	404.809400	964.001765	-411.267375	478.673059	921.852748	-408.915683	503.461911	943.458303	-389.876235	524.356593	844.406686	-417.683194	558.187658	749.914121	-406.714096	565.301977	725.409364	-309.607212	222.947013	598.738774	-410.682873	244.631281	596.669834	-338.227041	143.003587	619.863862	-371.580825	245.761288	479.206893	-430.509367	468.506234	709.133309	-426.930491	399.900025	656.912070	-416.253266	311.817185	645.084114	-414.265938	412.959013	632.893194	-387.503274	325.843353	435.196830	-359.508924	-64.664497	853.450627	-238.033044	20.653837	85.047907	-441.915280	21.133677	84.032470	-43.688481	
1254	6.2700	710.437009	1357.718596	-36.705497	700.493596	1347.297367	-384.747065	697.832302	1405.710993	-199.696652	698.280466	1264.556894	-206.964537	633.772755	1101.323365	7.233827	721.129129	868.639184	-51.027733	571.739215	1097.090978	-457.933975	715.010657	889.970863	-428.948078	225.700465	1182.174473	-187.356815	360.377840	1176.250547	-339.463991	376.421754	1136.927222	-52.981387	387.410124	1111.746539	-320.465098	405.487567	1079.590634	-82.565709	266.594448	1198.507062	-127.483101	257.629009	1220.392757	-234.739547	316.937135	993.062214	-29.088205	310.758812	1069.013502	-397.298172	361.353199	865.952938	-47.198068	406.181776	791.750516	-61.806368	400.720153	703.923203	-76.755752	434.328576	800.890163	-84.003543	412.411012	613.352019	-112.262719	377.466902	595.468369	-204.331768	366.223123	524.405018	-73.242925	367.478225	435.144088	-86.514553	325.338972	358.251069	-81.969467	388.303745	432.613492	-121.003196	291.721648	262.312050	-80.890021	293.746985	269.766936	-156.241626	211.429267	261.296119	-114.356744	441.519901	129.458110	-130.220669	363.594718	152.337257	-62.584217	405.645351	968.152319	-409.455212	480.501668	927.637916	-407.154785	504.733088	949.871872	-388.133308	527.973498	851.404200	-416.134109	564.513173	757.077875	-405.634434	571.996439	733.600175	-307.141776	230.704947	601.980309	-410.514210	252.120567	600.475755	-338.059217	149.867838	621.744989	-371.659064	255.660174	483.303942	-430.684327	475.541633	715.370955	-425.833687	407.258945	662.380907	-415.562299	319.272624	649.859381	-413.851732	420.420596	638.561644	-386.927820	336.611636	440.845681	-359.698318	-64.677683	853.453167	-237.963683	20.668228	85.076652	-441.895077	21.134457	84.030327	-43.683887	
